<svg xmlns="http://www.w3.org/2000/svg" viewBox="0 0 640 240" width="640" height="240" preserveAspectRatio="none" role="img" aria-label="Generated SVG wave">
<path d="M 0 240 L 0 156 L 6 161.64024477243728 L 12 167.201343912449 L 18 172.60724793230588 L 24 177.78389353449575 L 30 182.66019458876207 L 36 187.16900129649449 L 42 191.2480148187597 L 48 194.84064490956047 L 54 197.8967985357993 L 60 200.37358808499818 L 66 202.2359485630531 L 72 203.45715416568876 L 78 204.0192257635838 L 84 203.91322216321564 L 90 203.13940948019305 L 96 201.7073045721483 L 102 199.63559020329586 L 108 196.9519014281879 L 114 193.69248456051812 L 120 189.9017320039275 L 126 185.63159813344146 L 132 180.94090329481364 L 138 175.89453480034052 L 144 170.56255550939358 L 150 165.01923215656623 L 156 159.34199699816503 L 162 153.61035755938934 L 168 147.90477025367062 L 174 142.30549438979784 L 180 136.8914435635448 L 186 131.73905163531413 L 192 126.92117041586295 L 198 122.50601581604022 L 204 118.55617856686916 L 210 115.12771469213097 L 216 112.26932973124761 L 222 110.02166928538348 L 228 108.4167268187957 L 234 107.47737781943201 L 240 107.21704744019405 L 246 107.63951664078661 L 252 108.73886966754634 L 258 110.49958348441757 L 264 112.89675754223326 L 270 115.89648008531636 L 276 119.45632508268037 L 282 123.52597187239994 L 288 128.04793775600191 L 294 132.95841210560886 L 300 138.18817907674384 L 306 143.66361477645356 L 312 149.30774373723816 L 318 155.0413388046647 L 324 160.7840480678285 L 330 166.45553224919394 L 336 171.97659602096397 L 342 177.2702970213651 L 348 182.26301689402632 L 354 186.88547945087697 L 360 191.07370204410657 L 366 194.76986740317142 L 372 197.92310452375452 L 378 200.49016866043172 L 384 202.43601204599153 L 390 203.73423860989672 L 396 204.36743766846405 L 402 204.32739328291999 L 408 203.61516770277035 L 414 202.24105900678285 L 420 200.2244347002458 L 426 197.59344460526373 L 432 194.38461787339565 L 438 190.64235034223827 L 444 186.4182897375023 L 450 181.77062738016204 L 456 176.76330608720156 L 462 171.46515484938016 L 468 165.94896162728915 L 474 160.29049622647196 L 480 154.5674956936122 L 486 148.85862501995493 L 492 143.24242614720347 L 498 137.79626834767083 L 504 132.5953129972898 L 510 127.71150558016073 L 516 123.21260745955831 L 522 119.16127952555618 L 528 115.61422928634005 L 534 112.62143231147957 L 540 110.2254381635228 L 546 108.46077007204792 L 552 107.35342661489022 L 558 106.92049257840296 L 564 107.16986497689976 L 570 108.10009892659374 L 576 109.7003766985126 L 582 111.95060182680648 L 588 114.8216186342118 L 594 118.27555596787269 L 600 122.26629233108659 L 606 126.74003796686817 L 612 131.63602781671798 L 618 136.88731766387687 L 624 142.42167419773165 L 630 148.16254822951169 L 636 154.03011887474605 L 640 157.9717852870102 L 640 240 Z" fill="#1056ff" fill-opacity="0.31" stroke="none" />
<path d="M 0 240 L 0 194.3579036221111 L 6 198.80721588886064 L 12 203.04905899229564 L 18 207.0230289569753 L 24 210.67198618274182 L 30 213.9428770522065 L 36 216.78750897666194 L 42 219.16326744034367 L 48 221.03376415623035 L 54 222.36940616948957 L 60 223.14787663362296 L 66 223.35451903286472 L 72 222.98261782305673 L 78 222.0335697997386 L 84 220.51694196134775 L 90 218.45041319923786 L 96 215.85959879410902 L 102 212.77775840745005 L 108 209.2453900017123 L 114 205.3097138774584 L 120 201.02405275167035 L 126 196.44711548995548 L 132 191.64219371744167 L 138 186.6762820398195 L 144 181.61913397916175 L 150 176.54226694207136 L 156 171.51793056553066 L 162 166.61805360614514 L 168 161.91318513187534 L 174 157.4714461258455 L 180 153.35750770730075 L 186 149.63161200737304 L 192 146.3486513036449 L 198 143.55732031891785 L 204 141.29935563228105 L 210 139.60887494556832 L 216 138.5118275113825 L 222 138.02556538045866 L 228 138.1585432909276 L 234 138.91015302869607 L 240 140.2706959688051 L 246 142.221495297356 L 252 144.73514714980834 L 258 147.7759076232224 L 264 151.30021036734257 L 270 155.25730727246756 L 276 159.59002269040974 L 282 164.23560968671708 L 288 169.12669506378546 L 294 174.192298348738 L 300 179.35890863664883 L 306 184.55160214432524 L 312 189.69518258320807 L 318 194.71532601758554 L 324 199.53971174630342 L 330 204.0991209367453 L 336 208.32848524739867 L 342 212.16786849219534 L 348 215.5633655125776 L 354 218.4679038128118 L 360 220.84193515609917 L 366 222.65400618431755 L 372 223.88119917928935 L 378 224.50943629116475 L 384 224.533642879774 L 390 223.95776800539628 L 396 222.79466252276154 L 402 221.06581763219836 L 408 218.8009690810153 L 414 216.0375744440452 L 420 212.82017300446904 L 426 209.19963966711208 L 432 205.23234603252385 L 438 200.9792432117306 L 444 196.50488214382784 L 450 191.87638807211098 L 456 187.16240642541962 L 462 182.43203763190002 L 468 177.75377836057174 L 474 173.1944863460426 L 480 168.81838531342237 L 486 164.68612559955673 L 492 160.853914883982 L 498 157.37273202413022 L 504 154.28763536412066 L 510 151.63717508836584 L 516 149.45291725642264 L 522 147.75908512234219 L 528 146.5723212497698 L 534 145.9015718232368 L 540 145.74809246608433 L 546 146.10557284472205 L 552 146.96037540395085 L 558 148.29188177271774 L 564 150.0729387344771 L 570 152.27039419799087 L 576 154.84571235527406 L 582 157.75565619113937 L 588 160.95302472611885 L 594 164.3874318390326 L 600 168.0061132295921 L 606 171.75474804255637 L 612 175.57828187562168 L 618 179.42173832135325 L 624 183.23100683279813 L 630 186.95359553295725 L 636 190.53933858686312 L 640 192.83036548650887 L 640 240 Z" fill="#0047f1" fill-opacity="0.31" stroke="none" />
<path d="M 0 240 L 0 223.84519513653294 L 6 226.3620958450602 L 12 228.6357145602701 L 18 230.63228295029103 L 24 232.32183632147496 L 30 233.67866661422528 L 36 234.6817142384503 L 42 235.31489279001724 L 48 235.5673417143372 L 54 235.43360308075023 L 60 234.91371978363694 L 66 234.0132536744149 L 72 232.74322333370458 L 78 231.11996239587677 L 84 229.16490052014805 L 90 226.9042702452246 L 96 224.36874405097808 L 102 221.59300696472744 L 108 218.61527097677512 L 114 215.4767383569141 L 120 212.22102167949063 L 126 208.8935289600169 L 132 205.54082277404586 L 138 202.2099625639048 L 144 198.94783953789454 L 150 195.80051362875204 L 156 192.81256190463685 L 162 190.02644761968796 L 168 187.48191875720923 L 174 185.21544446338828 L 180 183.25969720131232 L 186 181.64308778346796 L 192 180.38935967665915 L 198 179.51724812811105 L 204 179.04020874801603 L 210 178.9662192150985 L 216 179.29765676151442 L 222 180.03125305536435 L 228 181.15812704712644 L 234 182.66389529410966 L 240 184.52885823799855 L 246 186.72825989766545 L 252 189.23261746505958 L 258 192.008116367833 L 264 195.01706549934013 L 270 198.2184065247618 L 276 201.56827046043165 L 282 205.02057410001805 L 288 208.5276483330341 L 294 212.0408899740782 L 300 215.51142840000384 L 306 218.8907980804601 L 312 222.1316079873616 L 318 225.18819888207557 L 324 228.0172796055179 L 330 230.57853373480947 L 336 232.83518831836747 L 342 234.75453685583594 L 348 236.30840924549494 L 354 237.4735820739968 L 360 238.23212336463098 L 366 238.57166672292595 L 372 238.48561071333467 L 378 237.97324025814342 L 384 237.03976785879507 L 390 235.69629348890965 L 396 233.95968308506116 L 402 231.85236665282625 L 408 229.40205809824323 L 414 226.64139997470625 L 420 223.6075373883167 L 426 220.3416263166073 L 432 216.88828255220355 L 438 213.294978370556 L 444 209.61139482597792 L 450 205.88873829018038 L 456 202.1790304504793 L 462 198.53438147015459 L 468 195.00625637162668 L 474 191.64474492625277 L 480 188.4978454163507 L 486 185.61077257111586 L 492 183.0252997659437 L 498 180.7791452139835 L 504 178.90541137136933 L 510 177.43208612763925 L 516 176.3816135667514 L 522 175.77054117052433 L 528 175.60924930615252 L 534 175.90176770569815 L 540 176.64568242313567 L 546 177.83213546043874 L 552 179.44591790674724 L 558 181.46565605357446 L 564 183.86408855509222 L 570 186.60843131727185 L 576 189.66082544496203 L 582 192.9788622737572 L 588 196.51617828531928 L 594 200.2231115714782 L 600 204.04741049366334 L 606 207.93498429822625 L 612 211.83068471137827 L 618 215.67910696398545 L 624 219.42539829807154 L 630 223.01606179256035 L 636 226.39974332159147 L 640 228.51647213859087 L 640 240 Z" fill="#003ed2" fill-opacity="0.31" stroke="none" />
</svg>